<?xml version="1.0" encoding="UTF-8"?> <svg xmlns="http://www.w3.org/2000/svg" width="485" height="100" viewBox="0 0 485 100" fill="none"><g clip-path="url(#clip0_46_315)"><path d="M16.0989 60.9926C19.8332 60.9926 21.7003 59.2297 22.5302 57.9125C23.2355 56.8994 23.9409 54.8933 23.9409 49.9287C23.9409 45.41 23.4222 43.6471 23.0488 42.7555C22.0737 40.6076 19.8332 38.9865 16.4723 38.9865H9.066C8.73407 38.9865 8.2984 39.2297 8.0287 39.4323C7.63453 39.797 7.51005 40.182 7.51005 40.567V60.9926H16.0782H16.0989ZM7.5308 77.3451H0V38.5002C0 36.2915 1.09954 35.0351 1.92938 34.407C3.21563 33.4748 4.87531 33.333 6.16156 33.333H18.0698C20.2688 33.333 24.833 33.6572 28.1108 36.9804C31.5754 40.5063 31.7206 45.6532 31.7206 49.3006C31.7206 53.6977 31.4717 58.4799 29.0237 61.8639C25.808 66.3826 20.5385 66.6461 17.0532 66.6461H7.5308V77.3249V77.3451Z" fill="#334155"></path><path d="M35.9745 45.9166C35.9745 42.2692 36.6177 38.6825 39.5221 36.2307C42.6755 33.5356 47.1151 33.333 49.7499 33.333H54.8327V38.9865H51.6793C49.6877 38.9865 47.0529 39.2297 45.248 41.3168C43.8373 43.0189 43.5053 45.3492 43.5053 47.8619V66.6663H35.9745V45.9166Z" fill="#334155"></path><path d="M65.2047 58.6222C67.383 61.0741 70.6816 61.3983 73.3786 61.3983C76.0756 61.3983 79.229 61.0741 81.4903 58.6222C83.7516 56.1704 83.7516 52.9687 83.7516 50.0711C83.7516 47.6192 83.9383 43.8502 81.5525 41.2768C79.3742 38.8857 76.0756 38.6425 73.3786 38.6425C70.9306 38.6425 67.2585 38.8857 65.1424 41.2768C63.0263 43.6678 63.0263 47.9434 63.0263 50.0711C63.0263 52.8472 63.0886 56.2312 65.2047 58.6222ZM87.1332 36.4946C91.0542 40.0812 91.5106 46.3629 91.5106 49.8887C91.5106 56.9201 89.6435 61.1349 87.1332 63.4652C83.4612 66.7884 77.2996 67.0518 73.3579 67.0518C69.4161 67.0518 63.3168 66.8087 59.5825 63.4652C55.537 59.8178 55.2051 53.5361 55.2051 50.1319C55.2051 46.3629 55.6615 40.0812 59.5825 36.4946C63.3168 33.0903 69.2916 32.9688 73.3579 32.9688C77.4241 32.9688 83.3989 33.0903 87.1332 36.4946Z" fill="#334155"></path><path d="M95.3267 60.9928H114.496C115.264 60.9928 116.301 60.8712 117.006 60.0607C117.649 59.3718 117.649 58.4802 117.649 57.9938C117.649 57.1225 117.525 56.2309 116.674 55.4812C116.156 55.0354 115.264 54.6099 110.492 53.3535L103.916 51.5906C100.306 50.6382 97.7955 49.3819 96.447 47.5582C95.0985 45.7345 94.8288 43.546 94.8288 41.9047C94.8288 40.2633 95.0778 38.0749 96.447 36.2512C98.4386 33.5562 101.717 33.3535 104.621 33.3535H129.973V39.007H105.783C104.932 39.007 103.978 39.007 103.148 39.6352C102.256 40.3241 102.194 41.1347 102.194 42.0263C102.194 42.9584 102.256 43.7892 103.293 44.5997C104.248 45.3495 106.633 46.0384 107.525 46.3018L114.869 48.3079C118.915 49.4427 121.695 50.314 123.355 52.0769C125.097 53.9006 125.408 56.3525 125.408 58.1762C125.408 62.2086 123.852 64.2755 122.566 65.2684C120.824 66.5247 118.707 66.6463 117.089 66.6463H95.2852V60.9928H95.3267Z" fill="#334155"></path><path d="M144.373 66.6667C139.809 66.6667 137.361 65.917 135.244 64.2148C133.045 62.4519 131.821 60 131.821 55.7852V39.0071H127.133V33.3536H131.821V22.6748H139.352V33.3536H148.875V39.0071H139.352V52.4012C139.352 54.6708 139.165 57.8116 141.344 59.5745C143.024 60.9524 145.846 61.0132 147.194 61.0132H149.061V66.6667H144.352H144.373Z" fill="#334155"></path><path d="M160.721 58.6222C162.92 61.0741 166.197 61.3983 168.894 61.3983C171.737 61.3983 174.745 61.0741 177.006 58.6222C179.267 56.1704 179.267 52.9687 179.267 50.0711C179.267 47.6192 179.454 43.8502 177.089 41.2768C174.89 38.8857 171.612 38.6425 168.915 38.6425C166.467 38.6425 162.795 38.8857 160.679 41.2768C158.563 43.6678 158.563 47.9434 158.563 50.0711C158.563 52.8472 158.625 56.2312 160.741 58.6222M182.67 36.4946C186.591 40.0812 187.047 46.3629 187.047 49.8887C187.047 56.9201 185.18 61.1349 182.67 63.4652C178.998 66.7884 172.815 67.0518 168.894 67.0518C164.973 67.0518 158.853 66.8087 155.119 63.4652C151.074 59.8178 150.742 53.5361 150.742 50.1319C150.742 46.3629 151.198 40.0812 155.119 36.4946C158.853 33.0903 164.828 32.9688 168.894 32.9688C172.961 32.9688 178.936 33.0903 182.67 36.4946Z" fill="#334155"></path><path d="M213.807 46.8087C215.301 46.8087 215.488 45.7347 215.488 44.8634C215.488 42.7965 214.388 41.216 213.289 40.4054C211.421 39.0275 208.973 38.9059 206.857 38.9059C204.866 38.9059 201.775 38.8451 199.721 41.1147C198.165 42.8168 198.248 44.6405 198.165 46.8289H213.807V46.8087ZM203.268 66.6668C199.804 66.6668 195.675 66.3426 192.854 62.452C190.593 59.3112 190.406 54.7114 190.406 50.3142C190.406 44.0934 190.717 39.4936 194.451 36.3527C198.186 33.2119 203.974 33.2119 207.189 33.2119C211.173 33.2119 215.301 33.3943 218.454 35.3396C222.438 37.7915 223.288 41.9455 223.288 46.14C223.288 47.8421 223.101 49.7874 221.691 51.1653C220.653 52.1785 219.367 52.4216 218.019 52.4216H198.186C198.186 53.8603 198.372 56.0083 198.642 57.0012C199.617 60.5878 202.77 60.9525 205.53 60.9525H222.189V66.606H203.268V66.6668Z" fill="#334155"></path><path d="M240.8 58.0546C240.987 58.5612 241.381 59.3718 241.713 59.3718C242.045 59.3718 242.418 58.5612 242.605 58.0546L252.127 33.3535H259.907L246.899 64.0931C245.737 66.93 243.559 67.0516 241.692 67.0516C240.343 67.0516 237.709 67.1124 236.422 64.0931L223.415 33.3535H231.194L240.779 58.0546H240.8Z" fill="#334155"></path><path d="M393.034 38.44C393.034 37.4268 393.096 35.9273 394.133 34.8533C395.544 33.293 397.868 33.3538 399.341 33.3538H411.373C414.921 33.3538 418.199 33.6781 420.896 36.0489C422.701 37.6092 424.236 40.1218 424.236 44.7216V66.6669H416.705V46.9303C416.705 44.7419 416.518 42.594 415.294 41.0337C414.195 39.6558 412.659 39.0276 409.879 39.0276H402.224C401.768 39.0276 401.332 39.0276 400.938 39.3923C400.544 39.8381 400.544 40.3447 400.544 40.7702V66.6669H393.013V38.44H393.034Z" fill="#334155"></path><path d="M451.93 46.8087C453.403 46.8087 453.61 45.7347 453.61 44.8634C453.61 42.7965 452.511 41.216 451.432 40.4054C449.565 39.0275 447.117 38.9059 445.001 38.9059C443.009 38.9059 439.918 38.8451 437.864 41.1147C436.329 42.8168 436.391 44.6405 436.329 46.8289H451.971L451.93 46.8087ZM441.37 66.6668C437.885 66.6668 433.777 66.3426 430.935 62.452C428.674 59.3112 428.487 54.7114 428.487 50.3142C428.487 44.0934 428.798 39.4936 432.553 36.3527C436.287 33.2119 442.076 33.2119 445.291 33.2119C449.274 33.2119 453.403 33.3943 456.556 35.3396C460.54 37.7915 461.39 41.9455 461.39 46.14C461.39 47.8421 461.203 49.7874 459.772 51.1653C458.735 52.1785 457.448 52.4216 456.1 52.4216H436.287C436.287 53.8603 436.474 56.0083 436.744 57.0012C437.719 60.5878 440.872 60.9525 443.632 60.9525H460.291V66.606H441.37V66.6668Z" fill="#334155"></path><path d="M480.31 66.6667C475.746 66.6667 473.298 65.917 471.182 64.2148C468.983 62.4519 467.78 60 467.78 55.7852V39.0071H463.07V33.3536H467.78V22.6748H475.31V33.3536H484.833V39.0071H475.31V52.4012C475.31 54.6708 475.124 57.8116 477.302 59.5745C478.982 60.9524 481.804 61.0132 483.152 61.0132H485.019V66.6667H480.31Z" fill="#334155"></path><path d="M362.579 76.0284L355.92 72.2594H355.899L334.033 59.9189C333.161 59.4326 332.083 59.4326 331.232 59.9189C330.361 60.4053 329.821 61.3171 329.821 62.2898V87.4772C329.821 88.0648 330.008 88.6322 330.381 89.1185L334.489 94.5086H320.921V62.2898C320.921 61.3171 320.382 60.4053 319.51 59.9189C318.639 59.4326 317.581 59.4326 316.689 59.9189L294.366 72.5025C293.848 72.7862 293.433 73.2523 293.184 73.7994L290.445 79.9797L283.661 68.4904L312.208 52.381C313.079 51.8946 313.619 50.9828 313.619 50.0101C313.619 49.0375 313.079 48.1256 312.208 47.6393L289.885 35.0557C289.366 34.7518 288.765 34.6302 288.163 34.7112L281.338 35.4813L288.122 23.9919L316.689 40.1013C317.125 40.3445 317.602 40.4661 318.1 40.4661C318.598 40.4661 319.075 40.3445 319.51 40.1013C320.382 39.615 320.921 38.7031 320.921 37.7305V12.5228C320.921 11.9352 320.714 11.3475 320.361 10.8815L316.253 5.49139H329.821V9.92908V37.7102C329.821 38.6829 330.361 39.5947 331.232 40.0811C331.668 40.3242 332.145 40.4458 332.643 40.4458C333.141 40.4458 333.618 40.3242 334.053 40.0811L356.376 27.4975C356.895 27.1935 357.31 26.7477 357.559 26.2006L360.297 20.0203L367.081 31.5096L360.422 35.2786L338.534 47.619C337.663 48.1054 337.124 49.0172 337.124 49.9899C337.124 50.9625 337.663 51.8744 338.534 52.3607L360.857 64.9443C361.376 65.2482 361.998 65.3698 362.6 65.2888L369.425 64.5187L362.641 76.0081L362.579 76.0284ZM376.956 59.6758C376.375 58.8045 375.359 58.3384 374.28 58.46L362.807 59.7568L345.505 49.9899L372.288 34.8936C372.288 34.8936 372.433 34.7518 372.516 34.691C372.724 34.5289 372.952 34.387 373.097 34.1641C373.554 33.5968 373.761 32.8673 373.657 32.1581C373.616 31.7933 373.492 31.4488 373.305 31.1449L362.309 12.5633C361.77 11.6717 360.774 11.1449 359.716 11.2057C358.658 11.2665 357.725 11.8946 357.289 12.847L352.704 23.2016L335.402 32.9686V13.0091V2.73556C335.402 1.21581 334.136 0 332.58 0H310.61C309.552 0 308.577 0.587639 308.1 1.51976C307.623 2.45187 307.727 3.56636 308.349 4.39716L315.237 13.4549V32.9686L297.561 22.999L288.454 17.8723C287.105 17.1226 285.383 17.5684 284.616 18.8855L273.62 37.4671C273.081 38.3587 273.122 39.4731 273.703 40.3445C274.284 41.2158 275.321 41.7021 276.379 41.5603L287.852 40.2634L305.154 50.0304L287.479 60L278.371 65.1266C277.707 65.5117 277.251 66.1196 277.064 66.8085C276.981 67.0922 276.981 67.3961 277.002 67.6798C277.002 67.7406 277.002 67.8014 277.002 67.8419C277.043 68.1864 277.168 68.5512 277.355 68.8754L288.329 87.4569C288.848 88.3485 289.844 88.8754 290.922 88.8146C291.98 88.7538 292.914 88.1256 293.35 87.1732L297.935 76.8186L315.237 67.0517V97.2644C315.237 97.6292 315.32 97.9939 315.444 98.3181C315.527 98.5005 315.652 98.6423 315.776 98.8045C315.88 98.9463 315.942 99.0881 316.046 99.2097C316.108 99.2908 316.233 99.311 316.316 99.3921C316.523 99.5542 316.71 99.7163 316.959 99.8176C317.291 99.9595 317.664 100.02 318.037 100.02H340.007C341.066 100.02 342.041 99.4326 342.518 98.5005C342.995 97.5684 342.891 96.4539 342.269 95.6231L335.381 86.5653V67.0517L362.164 82.1479H362.185C362.475 82.31 362.766 82.3911 363.098 82.4519C363.181 82.4519 363.264 82.4721 363.347 82.4924C363.43 82.4924 363.492 82.5127 363.575 82.5127C363.803 82.5127 364.031 82.4721 364.28 82.4316C364.986 82.2492 365.629 81.8237 366.023 81.155L376.998 62.5532C377.537 61.6616 377.495 60.5471 376.915 59.6758H376.956Z" fill="#334155"></path></g><defs><clipPath id="clip0_46_315"><rect width="485" height="100" fill="#334155"></rect></clipPath></defs></svg> 